<svg xmlns="http://www.w3.org/2000/svg" width="1200" height="700" viewBox="0 0 1200 700"><defs><marker id="a" viewBox="0 0 10 10" refX="9" refY="5" markerWidth="8" markerHeight="8" orient="auto"><path d="M0 0L10 5L0 10z" fill="#4a5568"/></marker><style>text{font-family:Malgun Gothic,Apple SD Gothic Neo,Noto Sans KR,Arial,sans-serif;fill:#1a202c}.t{font-size:24px;font-weight:700}.b{fill:#f7fafc;stroke:#4a5568;stroke-width:2;rx:12}.m{fill:#ebf8ff;stroke:#2b6cb0}.g{fill:#f0fff4;stroke:#38a169}.y{fill:#fffaf0;stroke:#d69e2e}.r{fill:#fff5f5;stroke:#e53e3e}.l{font-size:16px;text-anchor:middle;dominant-baseline:middle}.s{font-size:13px;text-anchor:middle;dominant-baseline:middle}</style></defs><rect width="100%" height="100%" fill="white"/><text x="600" y="40" text-anchor="middle" class="t">N:M 관계와 중간 테이블</text><rect x="120" y="120" width="260" height="90" class="b m"/><text x="250" y="155" class="l">members</text><text x="250" y="183" class="s">한 회원은 여러 책 대여</text><rect x="820" y="120" width="260" height="90" class="b m"/><text x="950" y="155" class="l">books</text><text x="950" y="183" class="s">한 책은 여러 회원에게 대여</text><rect x="430" y="250" width="340" height="60" class="b r"/><text x="600" y="280" class="l">직접 연결하면 N:M 관계</text><rect x="430" y="390" width="340" height="130" class="b y"/><text x="600" y="420" class="l">loans 중간 테이블</text><text x="600" y="455" class="s">member_id FK</text><text x="600" y="482" class="s">book_id FK</text><text x="600" y="509" class="s">borrowed_at / due_at / returned_at</text><rect x="300" y="590" width="600" height="55" class="b g"/><text x="600" y="618" class="l">members 1:N loans N:1 books 로 풀어낸다</text><line x1="380" y1="165" x2="430" y2="280" stroke="#e53e3e" stroke-width="2" marker-end="url(#a)"/><line x1="820" y1="165" x2="770" y2="280" stroke="#e53e3e" stroke-width="2" marker-end="url(#a)"/><line x1="600" y1="310" x2="600" y2="390" stroke="#4a5568" stroke-width="2" marker-end="url(#a)"/><line x1="430" y1="455" x2="250" y2="210" stroke="#38a169" stroke-width="2" stroke-dasharray="6 4" marker-end="url(#a)"/><line x1="770" y1="455" x2="950" y2="210" stroke="#38a169" stroke-width="2" stroke-dasharray="6 4" marker-end="url(#a)"/><line x1="600" y1="520" x2="600" y2="590" stroke="#4a5568" stroke-width="2" marker-end="url(#a)"/></svg>