<svg xmlns="http://www.w3.org/2000/svg" width="1200" height="780" viewBox="0 0 1200 780"><defs><marker id="a" viewBox="0 0 10 10" refX="9" refY="5" markerWidth="8" markerHeight="8" orient="auto"><path d="M0 0L10 5L0 10z" fill="#4a5568"/></marker><style>text{font-family:Malgun Gothic,Apple SD Gothic Neo,Noto Sans KR,Arial,sans-serif;fill:#1a202c}.t{font-size:24px;font-weight:700}.b{fill:#f7fafc;stroke:#4a5568;stroke-width:2;rx:12}.m{fill:#ebf8ff;stroke:#2b6cb0}.r{fill:#fff5f5;stroke:#e53e3e}.g{fill:#f0fff4;stroke:#38a169}.y{fill:#fffaf0;stroke:#d69e2e}.l{font-size:15px;text-anchor:middle;dominant-baseline:middle}.s{font-size:13px;text-anchor:middle;dominant-baseline:middle}</style></defs><rect width="100%" height="100%" fill="white"/><text x="600" y="40" text-anchor="middle" class="t">AI 생성 테이블 구조 검토</text><rect x="440" y="80" width="320" height="60" class="b m"/><text x="600" y="110" class="l">AI 생성 테이블 구조</text><rect x="440" y="180" width="320" height="60" class="b y"/><text x="600" y="210" class="l">중복 검토</text><rect x="100" y="320" width="250" height="70" class="b r"/><text x="225" y="348" class="l">중복 있음</text><text x="225" y="372" class="s">테이블 분리 검토</text><rect x="475" y="320" width="250" height="70" class="b y"/><text x="600" y="348" class="l">이상 현상 검토</text><text x="600" y="372" class="s">삽입/수정/삭제</text><rect x="850" y="320" width="250" height="70" class="b y"/><text x="975" y="348" class="l">관계 검토</text><text x="975" y="372" class="s">FK로 연결했는가?</text><rect x="210" y="520" width="300" height="70" class="b g"/><text x="360" y="548" class="l">정규화 기준 적용</text><text x="360" y="572" class="s">1NF / 2NF / 3NF</text><rect x="690" y="520" width="300" height="70" class="b g"/><text x="840" y="548" class="l">샘플 데이터와 JOIN 검증</text><text x="840" y="572" class="s">요구사항 만족 확인</text><rect x="440" y="680" width="320" height="55" class="b m"/><text x="600" y="708" class="l">설계 후보 확정</text><line x1="600" y1="140" x2="600" y2="180" stroke="#4a5568" stroke-width="2" marker-end="url(#a)"/><line x1="530" y1="240" x2="225" y2="320" stroke="#e53e3e" stroke-width="2" marker-end="url(#a)"/><line x1="600" y1="240" x2="600" y2="320" stroke="#4a5568" stroke-width="2" marker-end="url(#a)"/><line x1="670" y1="240" x2="975" y2="320" stroke="#4a5568" stroke-width="2" marker-end="url(#a)"/><line x1="225" y1="390" x2="360" y2="520" stroke="#38a169" stroke-width="2" marker-end="url(#a)"/><line x1="600" y1="390" x2="430" y2="520" stroke="#38a169" stroke-width="2" marker-end="url(#a)"/><line x1="975" y1="390" x2="840" y2="520" stroke="#38a169" stroke-width="2" marker-end="url(#a)"/><line x1="510" y1="555" x2="690" y2="555" stroke="#4a5568" stroke-width="2" marker-end="url(#a)"/><line x1="840" y1="590" x2="650" y2="680" stroke="#4a5568" stroke-width="2" marker-end="url(#a)"/></svg>