<svg xmlns="http://www.w3.org/2000/svg" width="1200" height="620" viewBox="0 0 1200 620"><defs><marker id="a" viewBox="0 0 10 10" refX="9" refY="5" markerWidth="8" markerHeight="8" orient="auto"><path d="M0 0L10 5L0 10z" fill="#4a5568"/></marker><style>text{font-family:Malgun Gothic,Apple SD Gothic Neo,Noto Sans KR,Arial,sans-serif;fill:#1a202c}.t{font-size:24px;font-weight:700}.b{fill:#f7fafc;stroke:#4a5568;stroke-width:2;rx:12}.m{fill:#ebf8ff;stroke:#2b6cb0}.g{fill:#f0fff4;stroke:#38a169}.y{fill:#fffaf0;stroke:#d69e2e}.r{fill:#fff5f5;stroke:#e53e3e}.l{font-size:15px;text-anchor:middle;dominant-baseline:middle}.s{font-size:13px;text-anchor:middle;dominant-baseline:middle}</style></defs><rect width="100%" height="100%" fill="white"/><text x="600" y="40" text-anchor="middle" class="t">BEGIN-COMMIT-ROLLBACK 기본 흐름</text><rect x="80" y="120" width="140" height="55" class="b m"/><text x="150" y="148" class="l">BEGIN</text><rect x="290" y="120" width="140" height="55" class="b y"/><text x="360" y="148" class="l">SQL 1</text><rect x="500" y="120" width="140" height="55" class="b y"/><text x="570" y="148" class="l">SQL 2</text><rect x="710" y="120" width="140" height="55" class="b y"/><text x="780" y="148" class="l">SQL 3</text><rect x="500" y="300" width="200" height="70" class="b m"/><text x="600" y="330" class="l">문제 없음?</text><text x="600" y="354" class="s">검증 결과 판단</text><rect x="260" y="480" width="220" height="65" class="b g"/><text x="370" y="510" class="l">COMMIT</text><text x="370" y="532" class="s">변경 확정</text><rect x="720" y="480" width="220" height="65" class="b r"/><text x="830" y="510" class="l">ROLLBACK</text><text x="830" y="532" class="s">변경 취소</text><line x1="220" y1="148" x2="290" y2="148" stroke="#4a5568" stroke-width="2" marker-end="url(#a)"/><line x1="430" y1="148" x2="500" y2="148" stroke="#4a5568" stroke-width="2" marker-end="url(#a)"/><line x1="640" y1="148" x2="710" y2="148" stroke="#4a5568" stroke-width="2" marker-end="url(#a)"/><line x1="780" y1="175" x2="620" y2="300" stroke="#4a5568" stroke-width="2" marker-end="url(#a)"/><line x1="550" y1="370" x2="370" y2="480" stroke="#38a169" stroke-width="2" marker-end="url(#a)"/><text x="440" y="420" class="s">예</text><line x1="650" y1="370" x2="830" y2="480" stroke="#e53e3e" stroke-width="2" marker-end="url(#a)"/><text x="760" y="420" class="s">아니오</text></svg>