<svg xmlns="http://www.w3.org/2000/svg" width="1200" height="720" viewBox="0 0 1200 720"><defs><marker id="a" viewBox="0 0 10 10" refX="9" refY="5" markerWidth="8" markerHeight="8" orient="auto"><path d="M0 0L10 5L0 10z" fill="#4a5568"/></marker><style>text{font-family:Malgun Gothic,Apple SD Gothic Neo,Noto Sans KR,Arial,sans-serif;fill:#1a202c}.t{font-size:24px;font-weight:700}.b{fill:#f7fafc;stroke:#4a5568;stroke-width:2;rx:12}.m{fill:#ebf8ff;stroke:#2b6cb0}.g{fill:#f0fff4;stroke:#38a169}.y{fill:#fffaf0;stroke:#d69e2e}.r{fill:#fff5f5;stroke:#e53e3e}.l{font-size:15px;text-anchor:middle;dominant-baseline:middle}.s{font-size:13px;text-anchor:middle;dominant-baseline:middle}</style></defs><rect width="100%" height="100%" fill="white"/><text x="600" y="42" text-anchor="middle" class="t">SQL Injection 위험과 안전한 쿼리</text><rect x="440" y="90" width="320" height="65" class="b m"/><text x="600" y="123" class="l">사용자 입력값</text><rect x="140" y="260" width="340" height="75" class="b r"/><text x="310" y="288" class="l">문자열 결합</text><text x="310" y="314" class="s">입력값이 SQL 의미를 바꿀 수 있음</text><rect x="720" y="260" width="340" height="75" class="b g"/><text x="890" y="288" class="l">파라미터 바인딩</text><text x="890" y="314" class="s">SQL 구조와 입력값 분리</text><rect x="140" y="470" width="340" height="75" class="b r"/><text x="310" y="500" class="l">위험 증가</text><text x="310" y="526" class="s">의도하지 않은 조회/변경 가능</text><rect x="720" y="470" width="340" height="75" class="b g"/><text x="890" y="500" class="l">더 안전한 방향</text><text x="890" y="526" class="s">입력값을 명령으로 해석하지 않음</text><rect x="440" y="625" width="320" height="55" class="b y"/><text x="600" y="653" class="l">AI 생성 SQL도 반드시 검토</text><line x1="520" y1="155" x2="310" y2="260" stroke="#e53e3e" stroke-width="2" marker-end="url(#a)"/><line x1="680" y1="155" x2="890" y2="260" stroke="#38a169" stroke-width="2" marker-end="url(#a)"/><line x1="310" y1="335" x2="310" y2="470" stroke="#e53e3e" stroke-width="2" marker-end="url(#a)"/><line x1="890" y1="335" x2="890" y2="470" stroke="#38a169" stroke-width="2" marker-end="url(#a)"/><line x1="310" y1="545" x2="520" y2="625" stroke="#4a5568" stroke-width="2" marker-end="url(#a)"/><line x1="890" y1="545" x2="680" y2="625" stroke="#4a5568" stroke-width="2" marker-end="url(#a)"/></svg>