<svg xmlns="http://www.w3.org/2000/svg" width="1100" height="700" viewBox="0 0 1100 700"><defs><marker id="a" viewBox="0 0 10 10" refX="9" refY="5" markerWidth="8" markerHeight="8" orient="auto"><path d="M0 0L10 5L0 10z" fill="#4a5568"/></marker><style>text{font-family:Malgun Gothic,Apple SD Gothic Neo,Noto Sans KR,Arial,sans-serif;fill:#1a202c}.t{font-size:24px;font-weight:700}.b{fill:#f7fafc;stroke:#4a5568;stroke-width:2;rx:12}.m{fill:#ebf8ff;stroke:#2b6cb0}.g{fill:#f0fff4;stroke:#38a169}.r{fill:#fff5f5;stroke:#e53e3e}.y{fill:#fffaf0;stroke:#d69e2e}.l{font-size:16px;text-anchor:middle;dominant-baseline:middle}.s{font-size:13px;text-anchor:middle;dominant-baseline:middle}</style></defs><rect width="100%" height="100%" fill="white"/><text x="550" y="40" text-anchor="middle" class="t">WHERE 조건으로 행 필터링</text><rect x="390" y="90" width="320" height="60" class="b m"/><text x="550" y="120" class="l">students 전체 행</text><rect x="390" y="210" width="320" height="60" class="b y"/><text x="550" y="240" class="l">WHERE major = '컴퓨터공학'</text><rect x="390" y="330" width="320" height="60" class="b"/><text x="550" y="360" class="l">조건 만족 여부 판단</text><rect x="150" y="480" width="300" height="80" class="b g"/><text x="300" y="510" class="l">조건 만족</text><text x="300" y="535" class="s">조회 결과에 포함</text><rect x="650" y="480" width="300" height="80" class="b r"/><text x="800" y="510" class="l">조건 불만족</text><text x="800" y="535" class="s">조회 결과에서 제외</text><rect x="230" y="615" width="640" height="45" class="b m"/><text x="550" y="638" class="l">WHERE는 영향을 받을 행의 범위를 제한한다.</text><line x1="550" y1="150" x2="550" y2="210" stroke="#4a5568" stroke-width="2" marker-end="url(#a)"/><line x1="550" y1="270" x2="550" y2="330" stroke="#4a5568" stroke-width="2" marker-end="url(#a)"/><line x1="520" y1="390" x2="300" y2="480" stroke="#38a169" stroke-width="2" marker-end="url(#a)"/><line x1="580" y1="390" x2="800" y2="480" stroke="#e53e3e" stroke-width="2" marker-end="url(#a)"/><line x1="300" y1="560" x2="500" y2="615" stroke="#4a5568" stroke-width="2" marker-end="url(#a)"/></svg>